<?xml version="1.0" standalone="no"?>
<!DOCTYPE svg PUBLIC "-//W3C//DTD SVG 20010904//EN"
 "http://www.w3.org/TR/2001/REC-SVG-20010904/DTD/svg10.dtd">
<svg version="1.0" xmlns="http://www.w3.org/2000/svg"
 width="580.000000pt" height="580.000000pt" viewBox="0 0 580.000000 580.000000"
 preserveAspectRatio="xMidYMid meet">
<metadata>
Created by potrace 1.14, written by Peter Selinger 2001-2017
</metadata>
<g transform="translate(0.000000,580.000000) scale(0.100000,-0.100000)"
fill="#000000" stroke="none">
<path d="M2720 5071 l0 -339 203 -5 c226 -5 260 -12 312 -66 69 -70 65 9 65
-1381 0 -1270 -3 -1408 -37 -1535 -65 -244 -231 -423 -458 -491 -73 -22 -303
-26 -375 -6 -199 56 -329 154 -397 301 -59 127 -64 160 -73 416 -8 269 -19
326 -78 440 -42 78 -125 168 -193 208 -112 64 -338 88 -482 51 -229 -59 -417
-252 -489 -501 -20 -68 -23 -101 -23 -253 0 -185 8 -240 58 -385 128 -371 424
-693 811 -880 138 -67 249 -106 397 -139 326 -73 711 -84 1059 -31 429 66 784
236 1045 499 192 193 336 432 390 643 48 191 48 176 55 1578 5 979 10 1332 19
1365 18 68 54 115 108 141 45 22 61 24 256 27 l207 4 0 339 0 339 -1190 0
-1190 0 0 -339z"/>
</g>
</svg>
